<svg width="16" height="16" viewBox="0 0 16 16" fill="none" xmlns="http://www.w3.org/2000/svg">
<path d="M2.66666 4V12M8.33132 8.00667V8.254C8.35799 10.2347 8.26799 10.9233 7.43466 10.6033L7.22932 10.4827L7.06332 10.3673L6.70666 10.092L6.03999 9.512L5.35799 8.93667L5.02466 8.63467L4.87599 8.48333L4.70132 8.23067L4.66532 8.00667L4.70132 7.784L4.87599 7.53067L5.02466 7.38L5.35799 7.078L6.03999 6.502L6.70666 5.922L7.06332 5.64733L7.22932 5.532L7.43466 5.41067C8.26799 5.09133 8.35799 5.77933 8.33132 7.76V8.00667ZM8.33132 8.00667H13.3333" stroke="#747A8B" stroke-linecap="round" stroke-linejoin="round"/>
</svg>
